<?xml version="1.0" standalone="no"?>
<!DOCTYPE svg PUBLIC "-//W3C//DTD SVG 20010904//EN"
 "http://www.w3.org/TR/2001/REC-SVG-20010904/DTD/svg10.dtd">
<svg version="1.0" xmlns="http://www.w3.org/2000/svg"
 width="700.000000pt" height="700.000000pt" viewBox="0 0 700.000000 700.000000"
 preserveAspectRatio="xMidYMid meet">
<metadata>
Created by potrace 1.14, written by Peter Selinger 2001-2017
</metadata>
<g transform="translate(0.000000,700.000000) scale(0.100000,-0.100000)"
fill="#000000" stroke="none">
<path d="M5038 6995 c-1 -2 -28 -6 -58 -9 -226 -22 -404 -61 -670 -148 -69
-22 -129 -44 -135 -47 -5 -4 -37 -18 -70 -31 -81 -32 -319 -152 -380 -192 -97
-64 -120 -158 -59 -245 35 -50 69 -71 126 -79 39 -5 54 -1 138 43 236 124 276
142 420 196 142 53 285 93 430 122 128 25 156 29 300 44 77 8 442 7 495 -2 17
-3 59 -8 95 -12 36 -4 74 -9 85 -11 11 -2 45 -9 75 -15 30 -6 69 -13 85 -16
54 -9 262 -71 362 -108 89 -33 326 -146 446 -211 105 -59 203 -29 258 78 42
83 12 157 -89 221 -318 202 -787 360 -1217 411 -104 13 -626 21 -637 11z"/>
<path d="M750 6720 c-38 -11 -82 -36 -112 -65 -56 -52 -66 -87 -94 -340 -4
-38 -8 -72 -9 -75 -1 -3 -5 -34 -9 -70 -4 -36 -9 -76 -11 -90 -6 -38 -17 -132
-20 -160 -2 -25 -13 -112 -20 -160 -2 -14 -6 -50 -10 -80 -3 -30 -8 -71 -10
-90 -3 -19 -7 -53 -9 -75 -3 -22 -12 -92 -20 -155 -8 -63 -18 -140 -21 -170
-4 -30 -8 -66 -10 -80 -2 -14 -6 -50 -10 -81 -3 -31 -7 -65 -9 -75 -2 -11 -7
-48 -10 -84 -4 -36 -8 -75 -10 -85 -2 -11 -7 -47 -10 -80 -4 -33 -9 -71 -11
-85 -4 -28 -12 -93 -20 -160 -3 -25 -7 -61 -10 -80 -9 -67 -34 -275 -40 -330
-4 -30 -8 -66 -10 -80 -2 -14 -6 -45 -9 -70 -3 -25 -10 -83 -16 -130 -5 -47
-12 -107 -15 -135 -4 -27 -8 -61 -10 -75 -2 -14 -7 -50 -10 -80 -3 -30 -8 -66
-10 -80 -4 -30 -16 -124 -20 -160 -5 -50 -16 -136 -21 -173 -7 -44 -10 -70
-19 -157 -4 -36 -9 -72 -10 -80 -2 -8 -6 -44 -10 -80 -4 -36 -9 -73 -11 -83
-2 -10 -6 -48 -9 -85 -3 -37 -8 -74 -10 -82 -2 -8 -6 -40 -10 -70 -3 -30 -8
-71 -10 -90 -3 -19 -7 -53 -9 -75 -3 -22 -10 -76 -16 -120 -34 -257 -34 -308
2 -362 15 -22 44 -49 66 -60 40 -19 60 -20 809 -17 814 3 871 5 1143 29 310
29 592 112 850 252 427 232 776 641 968 1133 34 88 115 338 127 390 2 8 12 49
23 90 25 93 69 291 77 345 3 23 7 50 9 61 4 21 12 77 22 164 6 57 6 347 0 420
-36 392 -118 699 -268 1000 -57 114 -116 205 -213 325 -77 95 -238 263 -339
353 -103 92 -313 231 -416 275 -130 56 -174 71 -290 102 -3 1 -30 7 -60 13
-135 29 -212 36 -595 58 -153 8 -1167 12 -1195 4z m1155 -705 c17 -2 59 -7 95
-10 80 -8 187 -22 260 -35 30 -6 69 -13 85 -15 91 -17 230 -60 300 -94 215
-106 406 -309 540 -575 52 -104 125 -298 140 -377 10 -49 13 -65 24 -124 6
-33 13 -73 16 -90 7 -43 18 -227 19 -315 0 -271 -72 -583 -219 -947 -59 -144
-140 -314 -176 -365 -124 -180 -234 -296 -380 -400 -165 -118 -307 -176 -499
-202 -25 -3 -54 -8 -65 -10 -19 -4 -71 -11 -155 -21 -39 -4 -153 -15 -215 -20
-97 -7 -413 -17 -551 -18 -173 0 -205 9 -258 76 -27 34 -31 46 -31 100 1 55
11 168 20 215 1 9 6 44 9 77 8 68 11 98 26 210 16 127 24 192 35 286 2 23 7
58 10 78 3 20 7 54 10 76 2 22 7 63 10 90 3 28 8 66 10 85 2 19 9 71 14 115 6
44 13 103 16 130 3 28 8 68 12 90 3 22 7 51 8 65 4 40 16 141 30 250 3 25 8
65 11 90 2 25 6 56 9 70 2 14 6 50 10 80 3 30 15 125 25 210 11 85 22 175 25
200 3 25 7 61 10 80 3 19 7 60 10 90 3 30 8 62 10 70 2 8 6 44 10 80 3 36 7
74 9 85 2 11 7 52 11 90 4 39 9 79 11 89 2 11 6 42 9 70 14 133 28 212 42 248
18 44 92 114 137 128 29 9 450 5 521 -5z"/>
<path d="M5168 6345 c-2 -2 -43 -6 -93 -10 -49 -4 -92 -8 -95 -10 -3 -1 -32
-6 -64 -10 -244 -28 -605 -152 -875 -301 -117 -64 -152 -157 -95 -248 33 -53
71 -77 126 -81 49 -3 85 8 158 51 147 86 442 195 616 228 301 58 525 63 818
21 260 -38 594 -157 796 -283 35 -22 129 -22 163 1 49 32 87 95 87 144 0 52
-36 114 -83 144 -43 27 -297 154 -322 162 -11 3 -72 24 -135 47 -109 39 -307
93 -389 105 -20 3 -46 7 -57 9 -11 2 -47 7 -79 11 -33 4 -73 9 -90 12 -32 5
-382 12 -387 8z"/>
<path d="M5150 5677 c-3 -3 -34 -7 -69 -10 -131 -13 -398 -82 -506 -131 -197
-90 -245 -121 -270 -172 -50 -106 10 -197 130 -198 39 0 71 10 150 48 55 27
128 59 162 72 68 26 234 69 300 79 23 3 57 8 75 11 61 9 283 11 358 3 208 -23
375 -72 565 -165 135 -65 198 -67 259 -8 55 54 51 136 -10 197 -61 61 -297
165 -479 212 -16 5 -34 9 -40 11 -92 27 -254 46 -425 50 -108 3 -198 3 -200 1z"/>
<path d="M5065 4949 c-21 -11 -52 -31 -67 -46 -61 -59 -58 6 -62 -1308 -2
-660 -6 -1216 -9 -1235 -3 -19 -7 -53 -8 -74 -2 -25 -22 -72 -55 -130 -46 -81
-59 -96 -125 -142 -145 -100 -345 -192 -456 -209 -21 -3 -63 -9 -93 -14 -77
-12 -241 -6 -334 14 -82 17 -258 82 -312 116 -52 32 -121 48 -199 46 -71 -2
-80 -5 -227 -81 -187 -95 -224 -120 -237 -157 -27 -79 8 -114 221 -223 198
-101 467 -204 602 -230 12 -2 41 -9 66 -14 103 -24 145 -27 350 -27 215 0 314
7 388 29 9 3 33 7 52 10 19 3 59 13 88 21 28 8 74 21 100 29 60 17 227 88 310
132 181 96 294 193 395 341 89 131 185 349 203 461 3 20 8 40 9 43 5 6 12 63
24 169 5 41 8 586 7 1210 l-1 1135 -25 45 c-14 25 -45 58 -70 75 l-45 30 -225
1 c-204 2 -229 0 -265 -17z"/>
</g>
</svg>
