<?xml version="1.0" encoding="utf-8"?>
<!-- Generator: Adobe Illustrator 25.1.0, SVG Export Plug-In . SVG Version: 6.00 Build 0)  -->
<svg version="1.1" id="Layer_1" xmlns="http://www.w3.org/2000/svg" xmlns:xlink="http://www.w3.org/1999/xlink" x="0px" y="0px"
	 viewBox="0 0 292 116" style="enable-background:new 0 0 292 116;" xml:space="preserve">
<style type="text/css">
	.st0{fill:#3B5700;}
</style>
<g>
	<path class="st0" d="M48.2,26.6c-13-22.6-29-22.9-43-22.9h-4v108.5H36v-3C36,71,9.8,88.7,5.6,22.5l29.9,52.6
		c15,26.4,47.2,11.8,47.2,37.1h4V3.8H51.9v3c0,37.4,24.8,22.1,29.9,81.9c-2.1-5-5-10.4-8.6-17.3C66.4,59,56.5,41.5,48.2,26.6z"/>
	<path class="st0" d="M142.9,2.8C113,2.8,88.6,27.4,88.6,58c0,30.6,24.3,55.4,54.2,55.4c30.1,0,54.2-24.8,54.2-55.4
		C197.1,27.4,173,2.8,142.9,2.8z M169.9,101.5c-9.1,5.6-28.8-9.1-43.7-33.1c-14.9-24-19.5-48-10.4-53.8c9.3-5.8,28.8,9.1,43.7,33.1
		C174.6,71.6,179,95.8,169.9,101.5z"/>
	<path class="st0" d="M236.6,113.4c29.9,0,54.2-24.8,54.2-55.4c0-30.6-24.3-55.4-54.2-55.4c-16,0-37.8,7.2-37.8,34.7v74.9h26.7
		C229,112.9,233.1,113.4,236.6,113.4z M218.2,14c9.1,2.6,23.8,15.8,35,33.8c14.9,23.8,19.5,48,10.2,53.8c-6.6,4-18.2-2.2-29.6-14.6
		V51.8c0-20.6-19.4-19.7-23.2-29.1C209.1,18.6,210.1,11.8,218.2,14z"/>
</g>
</svg>
